<?xml version="1.0" standalone="no"?>
<!DOCTYPE svg PUBLIC "-//W3C//DTD SVG 20010904//EN"
 "http://www.w3.org/TR/2001/REC-SVG-20010904/DTD/svg10.dtd">
<svg version="1.0" xmlns="http://www.w3.org/2000/svg"
 width="1280.000000pt" height="409.000000pt" viewBox="0 0 1280.000000 409.000000"
 preserveAspectRatio="xMidYMid meet">

<g transform="translate(0.000000,409.000000) scale(0.100000,-0.100000)"
fill="#000000" stroke="none">
<path d="M0 2045 l0 -2045 3279 0 c2820 0 3280 2 3284 14 3 8 0 17 -8 20 -19
7 -7 46 15 46 21 0 32 -23 23 -46 -3 -9 0 -20 8 -25 20 -13 1282 -12 1274 1
-3 5 -1 10 4 10 6 0 11 -4 11 -10 0 -7 399 -10 1176 -10 l1177 0 -6 56 c-9 90
-19 93 -93 28 -60 -53 -92 -65 -102 -36 -2 7 5 12 18 12 12 0 18 4 15 10 -3 5
-2 10 4 10 5 0 13 -5 17 -12 4 -6 18 13 35 48 32 66 27 75 -31 67 -43 -6 -54
5 -40 41 13 36 1 41 -120 42 -175 2 -236 37 -137 80 62 26 97 53 97 73 0 9
-18 35 -40 56 -22 21 -40 44 -40 50 0 33 -140 192 -330 375 -265 256 -296 286
-397 393 -57 61 -86 85 -97 81 -9 -3 -16 -1 -16 5 0 6 5 11 10 11 15 0 -22 49
-37 50 -7 0 -13 5 -13 11 0 6 -7 8 -15 5 -21 -7 -31 20 -15 39 17 21 4 48 -20
42 -11 -3 -21 0 -22 6 0 7 -2 17 -3 22 -2 6 -3 16 -4 23 -1 8 -8 11 -19 8 -14
-5 -30 8 -63 46 -24 29 -56 64 -71 77 -16 14 -28 29 -28 33 0 4 -19 28 -42 54
-100 110 -131 151 -134 171 -2 8 -10 20 -20 27 -9 7 -15 18 -13 24 2 7 20 -3
41 -22 20 -19 57 -42 82 -51 33 -13 48 -25 55 -46 6 -18 17 -29 29 -29 10 0
27 -7 38 -15 10 -8 34 -15 53 -15 29 0 33 -3 28 -20 -4 -17 9 -31 71 -75 43
-30 89 -65 104 -79 15 -15 30 -26 34 -26 3 0 21 -12 40 -28 18 -15 47 -37 64
-50 16 -13 30 -29 30 -36 0 -6 9 -12 20 -13 18 -2 131 -79 138 -95 5 -12 37
-9 49 3 17 17 35 1 23 -21 -5 -10 -10 -21 -10 -23 0 -2 27 -25 60 -51 59 -47
60 -47 77 -26 29 33 43 25 39 -22 -3 -34 1 -45 23 -64 14 -13 30 -24 34 -24
12 0 32 -22 40 -42 3 -10 13 -18 21 -18 9 0 51 -27 93 -60 43 -33 86 -60 95
-60 9 0 26 -12 37 -27 10 -16 43 -40 73 -54 29 -14 98 -49 153 -77 76 -38 105
-48 118 -41 9 6 17 15 17 22 0 7 9 23 20 37 l20 25 21 -25 c12 -14 33 -51 47
-82 13 -32 29 -58 34 -58 5 0 22 7 38 15 25 13 29 13 34 -1 3 -9 6 -29 6 -44
0 -16 5 -32 10 -35 6 -4 8 -11 5 -16 -4 -5 -2 -16 2 -24 7 -12 17 -8 53 24 25
22 47 35 48 30 2 -5 -6 -30 -18 -56 -31 -67 -23 -78 42 -52 79 31 83 32 97 15
10 -12 9 -20 -5 -41 -9 -14 -15 -28 -13 -30 3 -2 54 -5 114 -5 107 -2 190 -11
202 -24 14 -13 -23 -36 -110 -66 -177 -63 -197 -72 -197 -81 0 -5 21 -19 47
-31 39 -18 43 -23 27 -29 -10 -4 -41 -8 -68 -8 -27 -1 -46 -4 -43 -7 3 -4 2
-15 -4 -26 -8 -15 -3 -27 30 -65 43 -50 46 -65 9 -41 -13 8 -33 17 -45 20 -24
6 -30 -9 -35 -97 -3 -45 -27 -58 -57 -31 -9 8 -28 17 -42 18 -20 3 -25 -2 -27
-25 l-3 -27 1160 0 1161 0 0 2045 0 2045 -1226 0 -1225 0 58 -48 c32 -26 108
-87 168 -135 135 -106 158 -127 180 -160 16 -25 16 -27 1 -33 -31 -12 -75 18
-188 128 -62 60 -145 141 -184 179 l-71 69 -5157 0 -5156 0 0 -2045z m8540
2031 c0 -3 -4 -8 -10 -11 -5 -3 -10 -1 -10 4 0 6 5 11 10 11 6 0 10 -2 10 -4z
m-4080 -16 c0 -5 -4 -10 -10 -10 -5 0 -10 5 -10 10 0 6 5 10 10 10 6 0 10 -4
10 -10z m3225 -50 c-5 -8 -11 -8 -17 -2 -6 6 -7 16 -3 22 5 8 11 8 17 2 6 -6
7 -16 3 -22z m-1465 10 c0 -5 -4 -10 -10 -10 -5 0 -10 5 -10 10 0 6 5 10 10
10 6 0 10 -4 10 -10z m-2457 -40 c3 -11 1 -18 -4 -14 -5 3 -9 12 -9 20 0 20 7
17 13 -6z m1934 -36 c-9 -9 -28 6 -21 18 4 6 10 6 17 -1 6 -6 8 -13 4 -17z
m-1865 -17 c7 -7 29 -24 48 -37 19 -13 37 -27 40 -30 3 -3 50 -42 105 -85 55
-44 105 -87 112 -95 7 -8 13 -12 13 -8 0 4 12 -4 27 -18 15 -14 77 -64 138
-112 60 -47 112 -89 115 -92 21 -24 185 -142 228 -164 28 -14 58 -35 64 -46
20 -31 37 -23 44 20 4 22 10 40 14 40 14 0 30 -27 25 -42 -8 -20 13 -71 25
-63 6 4 10 -5 10 -20 0 -14 7 -28 16 -32 8 -3 13 -12 10 -19 -5 -14 21 -7 67
18 20 10 21 10 8 -6 -17 -20 -9 -30 18 -21 14 4 20 14 18 28 -3 29 25 29 38 0
8 -18 19 -23 65 -25 l55 -3 -39 -18 c-21 -10 -68 -24 -105 -31 -40 -7 -65 -17
-64 -24 2 -8 -7 -9 -30 -5 -30 6 -31 5 -17 -12 11 -14 11 -17 1 -11 -10 7 -12
2 -6 -24 6 -28 5 -32 -9 -27 -14 5 -16 -3 -16 -59 0 -73 -11 -77 -30 -9 -7 25
-19 45 -26 45 -8 0 -14 10 -14 25 0 28 -9 31 -29 13 -12 -11 -13 -10 -7 6 5
15 2 17 -14 13 -13 -3 -20 0 -20 9 0 12 -16 13 -94 8 -60 -4 -95 -3 -99 4 -7
10 45 35 101 47 39 8 41 18 5 34 -20 9 -24 14 -13 21 20 13 -414 443 -440 435
-23 -7 -36 11 -20 30 9 11 9 15 1 15 -7 0 -29 17 -49 38 -21 20 -102 97 -180
171 -133 125 -169 166 -123 141 11 -5 25 -16 33 -23z m688 -1 c0 -11 -19 -15
-25 -6 -3 5 1 10 9 10 9 0 16 -2 16 -4z m4456 -7 c10 -17 -13 -36 -27 -22 -12
12 -4 33 11 33 5 0 12 -5 16 -11z m-3236 -44 c0 -8 -9 -15 -20 -15 -20 0 -26
11 -13 23 12 13 33 7 33 -8z m-2660 -5 c0 -5 -7 -10 -15 -10 -8 0 -15 5 -15
10 0 6 7 10 15 10 8 0 15 -4 15 -10z m5008 -82 c-6 -18 -28 -21 -28 -4 0 9 7
16 16 16 9 0 14 -5 12 -12z m1817 -28 c-5 -8 -11 -8 -17 -2 -6 6 -7 16 -3 22
5 8 11 8 17 2 6 -6 7 -16 3 -22z m-3386 -9 c17 -11 7 -41 -13 -41 -19 0 -29
17 -22 35 6 17 15 18 35 6z m2242 -38 l25 -28 -27 -26 -28 -26 -27 28 -27 29
24 24 c31 31 31 31 60 -1z m-1101 -8 c0 -8 -7 -15 -15 -15 -8 0 -15 7 -15 15
0 8 7 15 15 15 8 0 15 -7 15 -15z m-6085 -124 c111 -84 215 -180 215 -200 0
-20 -48 -4 -94 32 -57 43 -256 244 -249 251 7 7 9 6 128 -83z m2068 44 c1 -5
-6 -11 -15 -13 -11 -2 -18 3 -18 13 0 17 30 18 33 0z m2102 -55 c3 -5 1 -10
-4 -10 -6 0 -11 5 -11 10 0 6 2 10 4 10 3 0 8 -4 11 -10z m606 -123 c-1 -12
-15 -9 -19 4 -3 6 1 10 8 8 6 -3 11 -8 11 -12z m1829 -187 c107 -86 248 -197
312 -247 107 -82 159 -125 256 -208 44 -37 93 -112 85 -131 -8 -22 -60 -16
-111 13 -26 15 -126 105 -222 199 -96 95 -188 185 -205 199 -81 74 -165 156
-165 163 0 4 -11 14 -24 22 -35 21 -186 168 -186 181 0 15 37 -13 260 -191z
m324 119 c-7 -13 -31 -11 -40 2 -9 16 18 30 33 17 7 -6 10 -14 7 -19z m-5074
-4 c0 -8 -7 -15 -15 -15 -8 0 -15 7 -15 15 0 8 7 15 15 15 8 0 15 -7 15 -15z
m922 -40 c0 -5 -5 -11 -11 -13 -6 -2 -11 4 -11 13 0 9 5 15 11 13 6 -2 11 -8
11 -13z m2446 -26 c-2 -6 -8 -10 -13 -10 -5 0 -11 4 -13 10 -2 6 4 11 13 11 9
0 15 -5 13 -11z m-1305 -16 c9 -9 -13 -34 -24 -27 -14 8 -11 34 4 34 8 0 17
-3 20 -7z m-1653 -48 c0 -8 -4 -15 -10 -15 -5 0 -10 7 -10 15 0 8 5 15 10 15
6 0 10 -7 10 -15z m3296 -12 c-10 -10 -19 5 -10 18 6 11 8 11 12 0 2 -7 1 -15
-2 -18z m-2966 -33 c0 -5 -4 -10 -10 -10 -5 0 -10 5 -10 10 0 6 5 10 10 10 6
0 10 -4 10 -10z m121 -23 c-1 -12 -15 -9 -19 4 -3 6 1 10 8 8 6 -3 11 -8 11
-12z m2897 -6 c19 -11 11 -45 -11 -49 -19 -4 -32 20 -23 43 6 17 15 19 34 6z
m242 -16 c0 -8 -6 -15 -14 -15 -17 0 -28 14 -19 24 12 12 33 6 33 -9z m-3920
-5 c0 -5 -4 -10 -10 -10 -5 0 -10 5 -10 10 0 6 5 10 10 10 6 0 10 -4 10 -10z
m600 0 c0 -5 -7 -10 -15 -10 -8 0 -15 5 -15 10 0 6 7 10 15 10 8 0 15 -4 15
-10z m-1130 -46 c0 -9 -5 -14 -12 -12 -18 6 -21 28 -4 28 9 0 16 -7 16 -16z
m-230 -34 c0 -5 -7 -10 -15 -10 -8 0 -15 5 -15 10 0 6 7 10 15 10 8 0 15 -4
15 -10z m3800 0 c0 -5 -4 -10 -10 -10 -5 0 -10 5 -10 10 0 6 5 10 10 10 6 0
10 -4 10 -10z m-3965 -58 c11 -12 29 -22 40 -23 20 0 20 0 -1 -9 -11 -4 -33
-22 -47 -40 -15 -17 -27 -28 -27 -23 0 5 -14 24 -31 41 -17 18 -26 32 -20 32
6 0 14 8 18 18 3 9 13 25 22 35 12 14 17 15 21 5 3 -7 14 -23 25 -36z m4825
24 c0 -18 -26 -39 -39 -31 -7 4 -6 12 2 25 14 23 37 27 37 6z m-2055 -6 c3 -5
1 -10 -4 -10 -6 0 -11 5 -11 10 0 6 2 10 4 10 3 0 8 -4 11 -10z m1365 -75 c0
-8 -7 -15 -15 -15 -8 0 -15 7 -15 15 0 8 7 15 15 15 8 0 15 -7 15 -15z m-250
-30 c0 -8 -4 -15 -9 -15 -13 0 -22 16 -14 24 11 11 23 6 23 -9z m-110 -29 c0
-3 -4 -8 -10 -11 -5 -3 -10 -1 -10 4 0 6 5 11 10 11 6 0 10 -2 10 -4z m1038
-49 c4 -20 -25 -34 -40 -19 -15 15 -1 44 19 40 10 -2 19 -11 21 -21z m69 -13
c8 -21 -13 -42 -28 -27 -13 13 -5 43 11 43 6 0 13 -7 17 -16z m1953 6 c0 -5
-4 -10 -10 -10 -5 0 -10 5 -10 10 0 6 5 10 10 10 6 0 10 -4 10 -10z m-420 -14
c0 -21 -21 -31 -30 -15 -5 7 -6 17 -4 21 9 14 34 9 34 -6z m-4163 -18 c-3 -8
-6 -5 -6 6 -1 11 2 17 5 13 3 -3 4 -12 1 -19z m2801 -20 c-3 -7 -11 -13 -18
-13 -7 0 -15 6 -17 13 -3 7 4 12 17 12 13 0 20 -5 18 -12z m-2308 -8 c0 -5 -2
-10 -4 -10 -3 0 -8 5 -11 10 -3 6 -1 10 4 10 6 0 11 -4 11 -10z m1514 -61 c-8
-14 -34 -11 -34 4 0 8 3 17 7 20 9 9 34 -13 27 -24z m-1119 1 c3 -6 -1 -13
-10 -16 -19 -8 -30 0 -20 15 8 14 22 14 30 1z m-215 -40 c0 -5 -5 -10 -11 -10
-5 0 -7 5 -4 10 3 6 8 10 11 10 2 0 4 -4 4 -10z m3566 -41 c10 -17 -13 -36
-27 -22 -12 12 -4 33 11 33 5 0 12 -5 16 -11z m-606 -20 c0 -5 -7 -9 -15 -9
-15 0 -20 12 -9 23 8 8 24 -1 24 -14z m-2715 -39 c0 -22 -29 -18 -33 3 -3 14
1 18 15 15 10 -2 18 -10 18 -18z m-180 -31 c0 -7 -8 -15 -17 -17 -18 -3 -25
18 -11 32 10 10 28 1 28 -15z m2355 -4 c0 -8 -7 -15 -15 -15 -8 0 -15 7 -15
15 0 8 7 15 15 15 8 0 15 -7 15 -15z m-2530 -5 c0 -5 -5 -10 -11 -10 -5 0 -7
5 -4 10 3 6 8 10 11 10 2 0 4 -4 4 -10z m230 0 c0 -5 -4 -10 -10 -10 -5 0 -10
5 -10 10 0 6 5 10 10 10 6 0 10 -4 10 -10z m840 -15 c0 -8 -7 -15 -15 -15 -8
0 -15 7 -15 15 0 8 7 15 15 15 8 0 15 -7 15 -15z m3119 -74 c18 -11 5 -31 -20
-31 -18 0 -26 20 -12 33 8 9 15 9 32 -2z m-6989 -14 c0 -8 -3 -17 -7 -20 -9
-9 -34 13 -27 24 8 14 34 11 34 -4z m4545 -7 c3 -5 1 -10 -4 -10 -6 0 -11 5
-11 10 0 6 2 10 4 10 3 0 8 -4 11 -10z m-3895 -20 c0 -5 -7 -10 -15 -10 -8 0
-15 5 -15 10 0 6 7 10 15 10 8 0 15 -4 15 -10z m6477 -129 c25 -24 62 -50 82
-57 28 -10 31 -13 13 -14 -13 0 -31 -4 -41 -9 -31 -17 -102 -94 -115 -125
l-13 -31 -7 38 c-7 40 -32 59 -46 36 -5 -7 -13 -10 -17 -5 -4 5 -2 11 5 13 6
3 12 8 12 12 0 17 -54 62 -84 69 l-31 9 31 7 c39 9 134 106 134 138 1 21 2 21
17 -7 8 -16 36 -50 60 -74z m999 88 c10 -17 -13 -36 -27 -22 -12 12 -4 33 11
33 5 0 12 -5 16 -11z m-3926 -9 c0 -5 -4 -10 -10 -10 -5 0 -10 5 -10 10 0 6 5
10 10 10 6 0 10 -4 10 -10z m-320 -10 c0 -5 -4 -10 -10 -10 -5 0 -10 5 -10 10
0 6 5 10 10 10 6 0 10 -4 10 -10z m1654 -3 c25 -19 17 -52 -13 -52 -28 0 -47
25 -38 49 8 19 27 21 51 3z m-3994 -27 c0 -5 -4 -10 -10 -10 -5 0 -10 5 -10
10 0 6 5 10 10 10 6 0 10 -4 10 -10z m2275 -20 c3 -5 -1 -10 -9 -10 -9 0 -16
5 -16 10 0 6 4 10 9 10 6 0 13 -4 16 -10z m3825 -20 c0 -5 -7 -10 -16 -10 -8
0 -12 5 -9 10 3 6 10 10 16 10 5 0 9 -4 9 -10z m-9142 -23 c4 -20 -25 -34 -40
-19 -15 15 -1 44 19 40 10 -2 19 -11 21 -21z m8282 13 c0 -5 -5 -10 -11 -10
-5 0 -7 5 -4 10 3 6 8 10 11 10 2 0 4 -4 4 -10z m-3460 -10 c0 -5 -4 -10 -10
-10 -5 0 -10 5 -10 10 0 6 5 10 10 10 6 0 10 -4 10 -10z m770 -30 c0 -5 -2
-10 -4 -10 -3 0 -8 5 -11 10 -3 6 -1 10 4 10 6 0 11 -4 11 -10z m1584 -13 c28
-21 17 -51 -21 -55 -25 -2 -33 1 -38 18 -7 22 9 50 29 50 7 0 20 -6 30 -13z
m-2364 -18 c0 -5 -4 -9 -10 -9 -5 0 -10 7 -10 16 0 8 5 12 10 9 6 -3 10 -10
10 -16z m3388 -22 c2 -10 -3 -17 -12 -17 -18 0 -29 16 -21 31 9 14 29 6 33
-14z m-3828 -8 c0 -5 -7 -9 -15 -9 -15 0 -20 12 -9 23 8 8 24 -1 24 -14z
m1232 9 c12 -7 33 -23 47 -35 14 -13 29 -23 33 -23 4 0 16 -6 25 -14 19 -16
85 -68 125 -99 143 -113 190 -150 251 -200 40 -32 80 -65 90 -73 10 -8 23 -14
30 -13 28 3 38 -2 35 -18 -2 -11 7 -26 23 -38 15 -11 86 -67 159 -125 160
-127 196 -153 260 -185 28 -14 66 -41 86 -61 20 -19 40 -31 45 -27 4 4 9 27
11 51 4 57 20 57 38 1 18 -53 38 -82 51 -73 9 5 14 -30 11 -68 -2 -21 9 -23
27 -5 10 10 11 6 5 -17 -6 -26 -5 -28 17 -21 13 4 41 16 61 26 31 16 36 16 32
4 -4 -8 -10 -15 -15 -15 -5 0 -9 -4 -9 -10 0 -6 45 -7 124 -3 80 4 125 2 129
-4 10 -16 -81 -46 -216 -73 -43 -9 -56 -15 -48 -24 7 -8 0 -10 -30 -8 -42 4
-49 -3 -21 -24 15 -12 15 -12 -5 -7 -26 6 -28 -2 -8 -37 19 -34 18 -43 -4 -31
-10 6 -21 7 -25 4 -3 -3 -6 -42 -6 -85 0 -92 -12 -95 -36 -10 -21 72 -23 75
-40 61 -12 -9 -14 -5 -14 24 0 36 -13 56 -25 37 -10 -16 -28 -12 -21 5 4 11
-2 15 -20 15 -14 0 -22 4 -19 10 4 7 -42 10 -130 9 -184 -1 -189 8 -38 57 46
14 81 29 78 34 -2 4 -18 13 -35 20 -25 10 -28 15 -18 27 10 13 9 18 -7 32 -11
9 -47 48 -80 86 -33 38 -134 142 -225 230 -155 152 -213 207 -420 401 -46 43
-111 105 -143 136 -32 32 -70 68 -85 81 -39 34 -87 87 -79 87 4 0 17 -6 29
-12z m833 -8 c-3 -5 -10 -10 -16 -10 -5 0 -9 5 -9 10 0 6 7 10 16 10 8 0 12
-4 9 -10z m-3603 -42 c-15 -15 -26 -4 -18 18 5 13 9 15 18 6 9 -9 9 -15 0 -24z
m158 22 c0 -5 -4 -10 -10 -10 -5 0 -10 5 -10 10 0 6 5 10 10 10 6 0 10 -4 10
-10z m-2187 -15 c1 -5 -6 -11 -15 -13 -11 -2 -18 3 -18 13 0 17 30 18 33 0z
m4570 0 c1 -5 -6 -11 -15 -13 -11 -2 -18 3 -18 13 0 17 30 18 33 0z m3527 -20
c0 -9 -7 -18 -16 -22 -18 -7 -39 11 -30 26 11 17 46 13 46 -4z m-4960 -45 c0
-5 -4 -10 -10 -10 -5 0 -10 5 -10 10 0 6 5 10 10 10 6 0 10 -4 10 -10z m1240
-15 c0 -8 -7 -15 -15 -15 -16 0 -20 12 -8 23 11 12 23 8 23 -8z m-1620 -15 c0
-5 -7 -10 -15 -10 -8 0 -15 5 -15 10 0 6 7 10 15 10 8 0 15 -4 15 -10z m3798
-13 c2 -10 -3 -17 -12 -17 -18 0 -29 16 -21 31 9 14 29 6 33 -14z m-6542 -38
c10 -17 -13 -36 -27 -22 -12 12 -4 33 11 33 5 0 12 -5 16 -11z m6454 -9 c0 -5
-4 -10 -10 -10 -5 0 -10 5 -10 10 0 6 5 10 10 10 6 0 10 -4 10 -10z m-3825
-40 c0 -18 -6 -26 -23 -28 -13 -2 -25 3 -28 12 -10 26 4 48 28 44 17 -2 23
-10 23 -28z m1353 -17 c-4 -22 -22 -20 -26 1 -2 10 3 16 13 16 10 0 15 -7 13
-17z m-848 -3 c0 -5 -4 -10 -10 -10 -5 0 -10 5 -10 10 0 6 5 10 10 10 6 0 10
-4 10 -10z m1560 -30 c0 -5 -4 -10 -10 -10 -5 0 -10 5 -10 10 0 6 5 10 10 10
6 0 10 -4 10 -10z m-2400 -21 c0 -5 -7 -9 -15 -9 -15 0 -20 12 -9 23 8 8 24
-1 24 -14z m230 11 c0 -5 -5 -10 -11 -10 -5 0 -7 5 -4 10 3 6 8 10 11 10 2 0
4 -4 4 -10z m-440 -20 c0 -5 -4 -10 -10 -10 -5 0 -10 5 -10 10 0 6 5 10 10 10
6 0 10 -4 10 -10z m3720 0 c0 -5 -5 -10 -11 -10 -5 0 -7 5 -4 10 3 6 8 10 11
10 2 0 4 -4 4 -10z m2408 -11 c-2 -6 -8 -10 -13 -10 -5 0 -11 4 -13 10 -2 6 4
11 13 11 9 0 15 -5 13 -11z m-4518 -44 c0 -8 -4 -15 -10 -15 -5 0 -10 7 -10
15 0 8 5 15 10 15 6 0 10 -7 10 -15z m1364 -26 c-3 -5 -10 -7 -15 -3 -5 3 -7
10 -3 15 3 5 10 7 15 3 5 -3 7 -10 3 -15z m-1274 1 c0 -5 -4 -10 -10 -10 -5 0
-10 5 -10 10 0 6 5 10 10 10 6 0 10 -4 10 -10z m-1070 -10 c0 -5 -4 -10 -10
-10 -5 0 -10 5 -10 10 0 6 5 10 10 10 6 0 10 -4 10 -10z m-2075 -60 c16 -16
33 -30 38 -30 5 0 39 -25 76 -55 237 -195 249 -203 260 -192 8 8 11 6 11 -9 0
-10 12 -28 27 -39 15 -11 55 -42 89 -70 34 -27 124 -99 199 -159 161 -129 237
-209 233 -246 -3 -21 -8 -25 -36 -23 -53 2 -130 61 -315 242 -260 254 -336
325 -370 341 -18 8 -32 22 -32 29 0 8 -22 36 -50 62 -99 93 -151 144 -164 162
-22 28 3 19 34 -13z m1885 -1 c0 -5 -7 -9 -15 -9 -15 0 -20 12 -9 23 8 8 24
-1 24 -14z m4040 1 c0 -5 -4 -10 -10 -10 -5 0 -10 5 -10 10 0 6 5 10 10 10 6
0 10 -4 10 -10z m2920 -20 c0 -5 -2 -10 -4 -10 -3 0 -8 5 -11 10 -3 6 -1 10 4
10 6 0 11 -4 11 -10z m-6000 -10 c0 -5 -4 -10 -10 -10 -5 0 -10 5 -10 10 0 6
5 10 10 10 6 0 10 -4 10 -10z m4150 0 c0 -5 -4 -10 -10 -10 -5 0 -10 5 -10 10
0 6 5 10 10 10 6 0 10 -4 10 -10z m-3040 -10 c0 -5 -7 -10 -15 -10 -8 0 -15 5
-15 10 0 6 7 10 15 10 8 0 15 -4 15 -10z m-2180 -15 c0 -8 -6 -15 -14 -15 -17
0 -28 14 -19 24 12 12 33 6 33 -9z m6050 1 c0 -3 -4 -8 -10 -11 -5 -3 -10 -1
-10 4 0 6 5 11 10 11 6 0 10 -2 10 -4z m-9093 -72 c8 -21 -13 -42 -28 -27 -13
13 -5 43 11 43 6 0 13 -7 17 -16z m5013 6 c0 -5 -4 -10 -10 -10 -5 0 -10 5
-10 10 0 6 5 10 10 10 6 0 10 -4 10 -10z m-5580 -54 c0 -20 -19 -31 -32 -18
-6 6 -7 15 -4 21 10 16 36 13 36 -3z m5210 -22 c0 -8 -7 -14 -15 -14 -15 0
-21 21 -9 33 10 9 24 -2 24 -19z m-1099 -27 c-1 -12 -15 -9 -19 4 -3 6 1 10 8
8 6 -3 11 -8 11 -12z m-1391 -18 c0 -24 -23 -21 -28 4 -2 10 3 17 12 17 10 0
16 -9 16 -21z m3880 11 c0 -5 -7 -10 -15 -10 -8 0 -15 5 -15 10 0 6 7 10 15
10 8 0 15 -4 15 -10z m-846 -9 c3 -5 -1 -14 -8 -20 -16 -13 -32 2 -21 19 8 12
22 13 29 1z m-1597 -17 c8 -21 -13 -42 -28 -27 -13 13 -5 43 11 43 6 0 13 -7
17 -16z m-417 -3 c0 -14 -18 -23 -30 -16 -6 4 -8 11 -5 16 8 12 35 12 35 0z
m330 -31 c0 -5 -4 -10 -10 -10 -5 0 -10 5 -10 10 0 6 5 10 10 10 6 0 10 -4 10
-10z m-2995 -30 c0 -22 -29 -18 -33 3 -3 14 1 18 15 15 10 -2 18 -10 18 -18z
m1515 -35 c0 -8 -7 -15 -15 -15 -8 0 -15 7 -15 15 0 8 7 15 15 15 8 0 15 -7
15 -15z m3120 -11 c0 -8 -7 -14 -15 -14 -15 0 -21 21 -9 33 10 9 24 -2 24 -19z
m-4743 -10 c3 -8 1 -20 -6 -27 -14 -14 -47 15 -37 32 10 16 36 13 43 -5z m311
-21 c5 -17 -26 -29 -40 -15 -6 6 -7 15 -3 22 9 14 37 9 43 -7z m6298 6 c10
-17 -13 -36 -27 -22 -12 12 -4 33 11 33 5 0 12 -5 16 -11z m1375 -34 c-1 -15
-24 -12 -29 3 -3 9 2 13 12 10 10 -1 17 -7 17 -13z m-4673 -16 c-2 -6 -8 -10
-13 -10 -5 0 -11 4 -13 10 -2 6 4 11 13 11 9 0 15 -5 13 -11z m3892 -39 c0 -5
-4 -10 -10 -10 -5 0 -10 5 -10 10 0 6 5 10 10 10 6 0 10 -4 10 -10z m-4090
-15 c0 -8 -7 -15 -15 -15 -16 0 -20 12 -8 23 11 12 23 8 23 -8z m5530 -35 c0
-5 -4 -10 -10 -10 -5 0 -10 5 -10 10 0 6 5 10 10 10 6 0 10 -4 10 -10z m-1140
-8 c0 -13 -12 -22 -22 -16 -10 6 -1 24 13 24 5 0 9 -4 9 -8z m-2130 -18 c0 -9
-5 -14 -12 -12 -18 6 -21 28 -4 28 9 0 16 -7 16 -16z m-2760 -34 c0 -5 -4 -10
-10 -10 -5 0 -10 5 -10 10 0 6 5 10 10 10 6 0 10 -4 10 -10z m2000 -11 c0 -5
-7 -9 -15 -9 -15 0 -20 12 -9 23 8 8 24 -1 24 -14z m270 11 c0 -5 -4 -10 -10
-10 -5 0 -10 5 -10 10 0 6 5 10 10 10 6 0 10 -4 10 -10z m3310 6 c0 -3 -4 -8
-10 -11 -5 -3 -10 -1 -10 4 0 6 5 11 10 11 6 0 10 -2 10 -4z m-5930 -31 c10
-12 10 -18 0 -30 -16 -19 -39 -19 -46 0 -6 15 11 45 26 45 4 0 13 -7 20 -15z
m3440 5 c0 -5 -7 -10 -15 -10 -8 0 -15 5 -15 10 0 6 7 10 15 10 8 0 15 -4 15
-10z m3270 -10 c0 -5 -4 -10 -10 -10 -5 0 -10 5 -10 10 0 6 5 10 10 10 6 0 10
-4 10 -10z m-3592 -37 c5 -17 -26 -29 -40 -15 -6 6 -7 15 -3 22 9 14 37 9 43
-7z m342 7 c0 -5 -2 -10 -4 -10 -3 0 -8 5 -11 10 -3 6 -1 10 4 10 6 0 11 -4
11 -10z m-2322 -53 c2 -12 -3 -17 -17 -17 -12 0 -21 6 -21 13 0 31 32 34 38 4z
m1382 3 c0 -5 -4 -10 -10 -10 -5 0 -10 5 -10 10 0 6 5 10 10 10 6 0 10 -4 10
-10z m-295 -10 c3 -5 1 -10 -4 -10 -6 0 -11 5 -11 10 0 6 2 10 4 10 3 0 8 -4
11 -10z m595 -19 c0 -14 -18 -23 -30 -16 -6 4 -8 11 -5 16 8 12 35 12 35 0z
m2580 -6 c0 -8 -7 -15 -15 -15 -8 0 -15 7 -15 15 0 8 7 15 15 15 8 0 15 -7 15
-15z m-3460 -15 c0 -5 -4 -10 -10 -10 -5 0 -10 5 -10 10 0 6 5 10 10 10 6 0
10 -4 10 -10z m1180 0 c0 -5 -4 -10 -10 -10 -5 0 -10 5 -10 10 0 6 5 10 10 10
6 0 10 -4 10 -10z m1210 0 c0 -5 -4 -10 -10 -10 -5 0 -10 5 -10 10 0 6 5 10
10 10 6 0 10 -4 10 -10z m268 -11 c-2 -6 -8 -10 -13 -10 -5 0 -11 4 -13 10 -2
6 4 11 13 11 9 0 15 -5 13 -11z m-5498 -39 c0 -5 -7 -10 -15 -10 -8 0 -15 5
-15 10 0 6 7 10 15 10 8 0 15 -4 15 -10z m-1930 -175 c295 -232 340 -272 340
-300 0 -47 -65 -19 -148 61 -97 95 -264 256 -340 327 -40 38 -72 71 -72 73 0
10 44 -22 220 -161z m8065 115 c3 -5 1 -10 -4 -10 -6 0 -11 5 -11 10 0 6 2 10
4 10 3 0 8 -4 11 -10z m2495 0 c0 -5 -7 -10 -15 -10 -8 0 -15 5 -15 10 0 6 7
10 15 10 8 0 15 -4 15 -10z m-4265 -49 c7 -12 -12 -24 -25 -16 -11 7 -4 25 10
25 5 0 11 -4 15 -9z m-55 -11 c0 -5 -4 -10 -10 -10 -5 0 -10 5 -10 10 0 6 5
10 10 10 6 0 10 -4 10 -10z m-640 -30 c0 -5 -2 -10 -4 -10 -3 0 -8 5 -11 10
-3 6 -1 10 4 10 6 0 11 -4 11 -10z m-1070 -10 c0 -5 -7 -10 -15 -10 -8 0 -15
5 -15 10 0 6 7 10 15 10 8 0 15 -4 15 -10z m-1370 -16 c0 -17 -22 -14 -28 4
-2 7 3 12 12 12 9 0 16 -7 16 -16z m3016 -5 c10 -17 -13 -36 -27 -22 -12 12
-4 33 11 33 5 0 12 -5 16 -11z m-3128 -29 c-1 -18 -6 -30 -15 -30 -8 0 -13 12
-13 30 0 19 5 30 14 30 10 0 14 -10 14 -30z m3322 16 c0 -3 -4 -8 -10 -11 -5
-3 -10 -1 -10 4 0 6 5 11 10 11 6 0 10 -2 10 -4z m870 -21 c0 -8 -7 -15 -15
-15 -16 0 -20 12 -8 23 11 12 23 8 23 -8z m-4300 -25 c0 -5 -7 -10 -15 -10 -8
0 -15 5 -15 10 0 6 7 10 15 10 8 0 15 -4 15 -10z m3290 -35 c0 -8 -7 -15 -15
-15 -8 0 -15 7 -15 15 0 8 7 15 15 15 8 0 15 -7 15 -15z m3410 -8 c0 -14 -20
-37 -32 -37 -13 0 -9 38 5 43 21 9 27 7 27 -6z m-4305 -6 c3 -5 1 -12 -5 -16
-5 -3 -10 1 -10 9 0 18 6 21 15 7z m-2720 -11 c-3 -5 -10 -10 -16 -10 -5 0 -9
5 -9 10 0 6 7 10 16 10 8 0 12 -4 9 -10z m-200 -30 c3 -5 1 -10 -4 -10 -6 0
-11 5 -11 10 0 6 2 10 4 10 3 0 8 -4 11 -10z m7263 -7 c5 -17 -26 -29 -40 -15
-6 6 -7 15 -3 22 9 14 37 9 43 -7z m-5918 -3 c0 -5 -4 -10 -10 -10 -5 0 -10 5
-10 10 0 6 5 10 10 10 6 0 10 -4 10 -10z m990 -5 c0 -8 -7 -15 -15 -15 -8 0
-15 7 -15 15 0 8 7 15 15 15 8 0 15 -7 15 -15z m1450 5 c0 -5 -7 -10 -15 -10
-8 0 -15 5 -15 10 0 6 7 10 15 10 8 0 15 -4 15 -10z m-3965 -10 c3 -5 1 -10
-4 -10 -6 0 -11 5 -11 10 0 6 2 10 4 10 3 0 8 -4 11 -10z m3571 -1 c10 -17
-13 -36 -27 -22 -12 12 -4 33 11 33 5 0 12 -5 16 -11z m-771 -24 c0 -23 -34
-33 -45 -14 -13 20 1 40 24 37 13 -2 21 -10 21 -23z m2355 -5 c0 -5 -5 -10
-11 -10 -5 0 -7 5 -4 10 3 6 8 10 11 10 2 0 4 -4 4 -10z m-522 -28 c2 -7 -6
-12 -17 -12 -21 0 -27 11 -14 24 9 9 26 2 31 -12z m-303 -2 c3 -5 1 -10 -4
-10 -6 0 -11 5 -11 10 0 6 2 10 4 10 3 0 8 -4 11 -10z m-1642 -36 c-6 -16 -33
-19 -33 -4 0 5 -7 7 -15 4 -24 -10 -17 12 8 23 26 12 49 -1 40 -23z m5062 16
c0 -22 -29 -18 -33 3 -3 14 1 18 15 15 10 -2 18 -10 18 -18z m-8643 -5 c0 -5
-5 -11 -11 -13 -6 -2 -11 4 -11 13 0 9 5 15 11 13 6 -2 11 -8 11 -13z m3749
-8 c-13 -13 -26 -3 -16 12 3 6 11 8 17 5 6 -4 6 -10 -1 -17z m-1961 -57 c0 -5
-7 -10 -15 -10 -8 0 -15 5 -15 10 0 6 7 10 15 10 8 0 15 -4 15 -10z m5502 -65
c0 -5 -5 -11 -11 -13 -6 -2 -11 4 -11 13 0 9 5 15 11 13 6 -2 11 -8 11 -13z
m-3222 -10 c0 -8 -9 -15 -20 -15 -11 0 -20 7 -20 15 0 8 9 15 20 15 11 0 20
-7 20 -15z m-3005 -4 c7 -12 -12 -24 -25 -16 -11 7 -4 25 10 25 5 0 11 -4 15
-9z m2785 -31 c0 -11 -6 -20 -14 -20 -18 0 -29 16 -21 30 11 18 35 11 35 -10z
m-150 -20 c0 -11 -7 -20 -15 -20 -8 0 -15 9 -15 20 0 11 7 20 15 20 8 0 15 -9
15 -20z m50 5 c0 -8 -7 -15 -15 -15 -8 0 -15 7 -15 15 0 8 7 15 15 15 8 0 15
-7 15 -15z m634 -6 c-3 -5 -10 -7 -15 -3 -5 3 -7 10 -3 15 3 5 10 7 15 3 5 -3
7 -10 3 -15z m4136 1 c0 -5 -4 -10 -10 -10 -5 0 -10 5 -10 10 0 6 5 10 10 10
6 0 10 -4 10 -10z m-6513 -56 c-9 -9 -28 6 -21 18 4 6 10 6 17 -1 6 -6 8 -13
4 -17z m1983 1 c0 -8 -7 -15 -15 -15 -8 0 -15 7 -15 15 0 8 7 15 15 15 8 0 15
-7 15 -15z m-4000 -5 c0 -5 -7 -10 -15 -10 -8 0 -15 5 -15 10 0 6 7 10 15 10
8 0 15 -4 15 -10z m6486 -1 c10 -17 -13 -36 -27 -22 -12 12 -4 33 11 33 5 0
12 -5 16 -11z m-2256 -18 c0 -14 -18 -23 -30 -16 -6 4 -8 11 -5 16 8 12 35 12
35 0z m-1010 -11 c0 -5 -4 -10 -10 -10 -5 0 -10 5 -10 10 0 6 5 10 10 10 6 0
10 -4 10 -10z m2270 0 c0 -5 -4 -10 -10 -10 -5 0 -10 5 -10 10 0 6 5 10 10 10
6 0 10 -4 10 -10z m830 0 c0 -5 -5 -10 -11 -10 -5 0 -7 5 -4 10 3 6 8 10 11
10 2 0 4 -4 4 -10z m835 -10 c0 -22 -39 -19 -43 3 -3 15 1 18 20 15 12 -2 23
-10 23 -18z m-4767 -88 c-16 -13 -28 -31 -29 -40 0 -13 -3 -11 -9 5 -5 11 -19
29 -32 39 l-23 17 30 31 30 31 30 -30 30 -30 -27 -23z m1692 62 c0 -8 -6 -14
-14 -14 -8 0 -17 -11 -20 -25 -4 -14 -11 -23 -17 -19 -6 3 -10 0 -8 -7 3 -27
-1 -39 -15 -39 -20 0 -29 30 -11 37 11 4 13 9 5 18 -16 19 -1 45 25 45 13 0
26 7 29 16 7 18 26 10 26 -12z m290 6 c0 -5 -4 -10 -10 -10 -5 0 -10 5 -10 10
0 6 5 10 10 10 6 0 10 -4 10 -10z m-70 -10 c0 -5 -4 -10 -10 -10 -5 0 -10 5
-10 10 0 6 5 10 10 10 6 0 10 -4 10 -10z m-2889 -13 c-1 -12 -15 -9 -19 4 -3
6 1 10 8 8 6 -3 11 -8 11 -12z m2297 -30 c2 -11 -3 -17 -16 -17 -24 0 -32 8
-25 26 7 20 37 13 41 -9z m3682 13 c0 -5 -4 -10 -10 -10 -5 0 -10 5 -10 10 0
6 5 10 10 10 6 0 10 -4 10 -10z m-5270 -15 c0 -8 -7 -15 -15 -15 -8 0 -15 7
-15 15 0 8 7 15 15 15 8 0 15 -7 15 -15z m1415 -40 c0 -10 -5 -20 -11 -22 -13
-4 -27 24 -18 38 9 15 29 4 29 -16z m2227 10 c0 -5 -5 -11 -11 -13 -6 -2 -11
4 -11 13 0 9 5 15 11 13 6 -2 11 -8 11 -13z m-3252 -5 c0 -5 -4 -10 -10 -10
-5 0 -10 5 -10 10 0 6 5 10 10 10 6 0 10 -4 10 -10z m1570 -20 c0 -13 -7 -20
-20 -20 -13 0 -20 7 -20 20 0 13 7 20 20 20 13 0 20 -7 20 -20z m-2010 -30 c0
-5 -4 -10 -10 -10 -5 0 -10 5 -10 10 0 6 5 10 10 10 6 0 10 -4 10 -10z"/>
<path d="M8740 1790 c0 -5 5 -10 10 -10 6 0 10 5 10 10 0 6 -4 10 -10 10 -5 0
-10 -4 -10 -10z"/>
<path d="M8950 1641 c0 -6 5 -13 10 -16 6 -3 10 1 10 9 0 9 -4 16 -10 16 -5 0
-10 -4 -10 -9z"/>
<path d="M9006 1605 c4 -8 8 -15 10 -15 2 0 4 7 4 15 0 8 -4 15 -10 15 -5 0
-7 -7 -4 -15z"/>
<path d="M8946 1551 c-8 -12 21 -34 33 -27 6 4 8 13 4 21 -6 17 -29 20 -37 6z"/>
<path d="M9545 1170 c-3 -5 1 -10 9 -10 9 0 16 5 16 10 0 6 -4 10 -9 10 -6 0
-13 -4 -16 -10z"/>
<path d="M9656 1042 c-3 -6 1 -15 8 -21 8 -7 17 -8 20 -3 3 6 -1 15 -8 21 -8
7 -17 8 -20 3z"/>
<path d="M9540 900 c0 -5 5 -10 11 -10 5 0 7 5 4 10 -3 6 -8 10 -11 10 -2 0
-4 -4 -4 -10z"/>
<path d="M10680 480 c20 -13 33 -13 25 0 -3 6 -14 10 -23 10 -15 0 -15 -2 -2
-10z"/>
<path d="M10313 23 c-22 -8 -14 -23 12 -23 14 0 25 4 25 9 0 11 -21 19 -37 14z"/>
</g>
</svg>
