<svg width="299" height="37" viewBox="0 0 299 40" fill="none" xmlns="http://www.w3.org/2000/svg">
<path d="M1.25 37V11.65H8.55V37H1.25ZM1.9 7.3C1.06667 6.46667 0.65 5.46667 0.65 4.3C0.65 3.13333 1.06667 2.13333 1.9 1.3C2.73333 0.466665 3.73333 0.0499989 4.9 0.0499989C6.06667 0.0499989 7.06667 0.466665 7.9 1.3C8.73333 2.13333 9.15 3.13333 9.15 4.3C9.15 5.46667 8.73333 6.46667 7.9 7.3C7.06667 8.13333 6.06667 8.55 4.9 8.55C3.73333 8.55 2.73333 8.13333 1.9 7.3ZM243.264 31.2139C247.056 31.2139 249.652 30.7256 251.052 29.749C252.468 28.7562 253.176 27.6738 253.176 26.502C253.176 25.3301 252.712 24.3698 251.784 23.6211C250.873 22.8724 249.497 22.498 247.658 22.498H240.651L235.817 16.4678H246.926C248.765 16.4678 250.14 16.1016 251.052 15.3691C251.979 14.6204 252.443 13.6602 252.443 12.4883C252.443 11.1536 251.735 10.0387 250.319 9.14355C248.92 8.2321 246.568 7.77637 243.264 7.77637C237.909 7.77637 233.441 9.07031 229.86 11.6582L226.662 6.75098C231.203 3.57715 236.737 1.99023 243.264 1.99023C248.749 1.99023 252.761 2.99121 255.3 4.99316C257.855 6.99512 259.133 9.41211 259.133 12.2441C259.133 15.2389 257.814 17.542 255.178 19.1533C258.303 20.8949 259.865 23.4258 259.865 26.7461C259.865 29.5781 258.506 31.9951 255.788 33.9971C253.086 35.999 248.911 37 243.264 37C236.737 37 231.203 35.4131 226.662 32.2393L229.86 27.332C233.441 29.9199 237.909 31.2139 243.264 31.2139ZM293.068 19.3242C294.794 20.0729 296.161 21.0495 297.17 22.2539C298.179 23.4583 298.684 25.0778 298.684 27.1123C298.684 29.4561 298.024 31.3522 296.706 32.8008C295.388 34.2493 293.516 35.3154 291.091 35.999C288.666 36.6663 285.785 37 282.448 37C279.128 36.9837 276.255 36.6338 273.83 35.9502C271.421 35.2503 269.549 34.1761 268.215 32.7275C266.88 31.279 266.213 29.4072 266.213 27.1123C266.213 25.7288 266.449 24.5651 266.921 23.6211C267.409 22.6771 268.036 21.8551 268.801 21.1553C269.582 20.4391 270.591 19.8288 271.828 19.3242C270.135 18.4941 268.866 17.4932 268.02 16.3213C267.189 15.1494 266.774 13.6683 266.774 11.8779C266.774 9.55046 267.393 7.66243 268.63 6.21387C269.883 4.74902 271.682 3.68294 274.025 3.01562C276.385 2.33203 279.234 1.99023 282.57 1.99023C285.907 2.02279 288.747 2.389 291.091 3.08887C293.451 3.77246 295.249 4.83854 296.486 6.28711C297.723 7.7194 298.342 9.58301 298.342 11.8779C298.342 13.7171 297.886 15.2227 296.975 16.3945C296.063 17.5664 294.761 18.543 293.068 19.3242ZM282.448 31.3359C285.752 31.3359 288.169 30.8965 289.699 30.0176C291.229 29.1387 291.994 28.0075 291.994 26.624C291.994 25.2243 291.229 24.085 289.699 23.2061C288.169 22.3271 285.752 21.8877 282.448 21.8877C279.16 21.8877 276.743 22.3271 275.197 23.2061C273.667 24.085 272.902 25.2243 272.902 26.624C272.902 28.0075 273.667 29.1387 275.197 30.0176C276.743 30.8965 279.16 31.3359 282.448 31.3359ZM282.57 17.0781C285.695 17.0781 287.99 16.6224 289.455 15.7109C290.92 14.7995 291.652 13.6276 291.652 12.1953C291.652 10.7793 290.92 9.61556 289.455 8.7041C287.99 7.79264 285.695 7.33691 282.57 7.33691C279.429 7.33691 277.126 7.79264 275.661 8.7041C274.196 9.61556 273.464 10.7793 273.464 12.1953C273.464 13.6276 274.196 14.7995 275.661 15.7109C277.126 16.6224 279.429 17.0781 282.57 17.0781Z" fill="#E606B3"/>
<path d="M21.6816 30.9697H33.9375C35.7604 30.9697 37.4613 30.7826 39.04 30.4082C40.6351 30.0339 42.0267 29.4072 43.2148 28.5283C44.4193 27.6494 45.3633 26.4775 46.0469 25.0127C46.7467 23.5316 47.0967 21.6842 47.0967 19.4707C47.0967 17.2734 46.7467 15.4424 46.0469 13.9775C45.3633 12.4964 44.4193 11.3245 43.2148 10.4619C42.0267 9.58301 40.6351 8.95638 39.04 8.58203C37.4613 8.20768 35.7604 8.02051 33.9375 8.02051H21.6816V30.9697ZM14.9922 37V1.99023H33.9375C37.5671 1.99023 40.6432 2.48665 43.166 3.47949C45.7051 4.45605 47.764 5.77441 49.3428 7.43457C50.9378 9.09473 52.0934 10.9665 52.8096 13.0498C53.542 15.1331 53.9082 17.2734 53.9082 19.4707C53.9082 21.7168 53.542 23.8815 52.8096 25.9648C52.0934 28.0482 50.9378 29.9199 49.3428 31.5801C47.764 33.2402 45.7051 34.5586 43.166 35.5352C40.6432 36.5117 37.5671 37 33.9375 37H14.9922ZM59.6211 8.99219H64.9727V37H59.6211V8.99219ZM101.711 20.5742C101.88 21.3424 101.965 22.1497 101.965 22.9961C101.965 24.7799 101.672 26.5117 101.086 28.1914C100.513 29.8581 99.5951 31.3555 98.332 32.6836C97.069 33.9987 95.4219 35.0469 93.3906 35.8281C91.3594 36.6094 88.8984 37 86.0078 37C83.1042 37 80.6367 36.6094 78.6055 35.8281C76.5872 35.0469 74.9466 33.9987 73.6836 32.6836C72.4206 31.3555 71.4961 29.8581 70.9102 28.1914C70.3372 26.5117 70.0508 24.7799 70.0508 22.9961C70.0508 21.2122 70.3372 19.487 70.9102 17.8203C71.4961 16.1406 72.4206 14.6432 73.6836 13.3281C74.9466 12.013 76.5872 10.9648 78.6055 10.1836C80.6367 9.40234 83.1042 9.01172 86.0078 9.01172C88.8984 9.01172 91.3268 9.40885 93.293 10.2031C95.2591 10.9844 96.9388 12.0391 98.332 13.3672L94.875 16.9023C93.4688 15.7695 92.0951 14.9883 90.7539 14.5586C89.4258 14.1289 87.8438 13.9141 86.0078 13.9141C84.5495 13.9141 83.1823 14.0638 81.9062 14.3633C80.6432 14.6628 79.5299 15.1641 78.5664 15.8672C77.6029 16.5573 76.8477 17.4948 76.3008 18.6797C75.7539 19.8646 75.4805 21.3359 75.4805 23.0938C75.4805 24.8516 75.7539 26.3229 76.3008 27.5078C76.8477 28.6797 77.6029 29.6172 78.5664 30.3203C79.5299 31.0234 80.6432 31.5247 81.9062 31.8242C83.1823 32.1237 84.5495 32.2734 86.0078 32.2734C87.4531 32.2734 88.8073 32.1172 90.0703 31.8047C91.3464 31.4922 92.4661 30.9844 93.4297 30.2812C94.3932 29.5781 95.1484 28.6341 95.6953 27.4492C95.9427 26.9154 96.1445 26.2318 96.3008 25.3984H87.3359L83.4492 20.5742H101.711ZM107.043 8.99219H112.395V37H107.043V8.99219ZM130.031 13.8164H117.473V8.99219H147.941V13.8164H135.383V37H130.031V13.8164ZM159.445 37H153.02L168.957 8.99219H175.383L191.301 37H184.875L172.199 13.6211L163.098 30.3203L176.574 24.9297V30.1445L159.445 37ZM220.949 37H196.379V8.99219H201.73V31.7656H220.949V37Z" fill="white"/>
</svg>
