<?xml version="1.0" encoding="UTF-8"?>
<!DOCTYPE svg PUBLIC "-//W3C//DTD SVG 1.1//EN" "http://www.w3.org/Graphics/SVG/1.1/DTD/svg11.dtd">
<svg xmlns="http://www.w3.org/2000/svg" version="1.1" width="512px" height="512px" style="shape-rendering:geometricPrecision; text-rendering:geometricPrecision; image-rendering:optimizeQuality; fill-rule:evenodd; clip-rule:evenodd" xmlns:xlink="http://www.w3.org/1999/xlink">
<g><path style="opacity:1" fill="#ffadfa" d="M 81.5,-0.5 C 197.5,-0.5 313.5,-0.5 429.5,-0.5C 474.5,9.16667 501.833,36.5 511.5,81.5C 511.5,197.5 511.5,313.5 511.5,429.5C 501.833,474.5 474.5,501.833 429.5,511.5C 313.5,511.5 197.5,511.5 81.5,511.5C 36.5,501.833 9.16667,474.5 -0.5,429.5C -0.5,313.5 -0.5,197.5 -0.5,81.5C 9.16667,36.5 36.5,9.16667 81.5,-0.5 Z"/></g>
<g><path style="opacity:1" fill="#fffefe" d="M 368.5,148.5 C 380.649,148.427 385.483,154.427 383,166.5C 369.797,227.78 356.797,289.113 344,350.5C 340.237,362.135 333.071,364.969 322.5,359C 303.026,345.026 283.693,330.86 264.5,316.5C 253.35,326.483 242.35,336.649 231.5,347C 229.323,348.202 226.989,348.702 224.5,348.5C 225.382,328.821 226.548,309.154 228,289.5C 264.855,256.734 301.522,223.734 338,190.5C 338.483,189.552 338.649,188.552 338.5,187.5C 335.351,187.211 332.351,187.711 329.5,189C 284.589,217.578 239.422,245.745 194,273.5C 174.167,267.333 154.333,261.167 134.5,255C 128.438,253.046 126.604,249.213 129,243.5C 131.892,240.943 135.059,238.776 138.5,237C 215.383,207.766 292.05,178.266 368.5,148.5 Z"/></g>
</svg>
