<?xml version="1.0" encoding="UTF-8"?>
<!DOCTYPE svg PUBLIC "-//W3C//DTD SVG 1.1//EN" "http://www.w3.org/Graphics/SVG/1.1/DTD/svg11.dtd">
<svg xmlns="http://www.w3.org/2000/svg" version="1.1" width="512px" height="512px" style="shape-rendering:geometricPrecision; text-rendering:geometricPrecision; image-rendering:optimizeQuality; fill-rule:evenodd; clip-rule:evenodd" xmlns:xlink="http://www.w3.org/1999/xlink">
<g><path style="opacity:1" fill="#ffadfa" d="M 81.5,-0.5 C 197.5,-0.5 313.5,-0.5 429.5,-0.5C 474.5,9.16667 501.833,36.5 511.5,81.5C 511.5,197.5 511.5,313.5 511.5,429.5C 501.833,474.5 474.5,501.833 429.5,511.5C 313.5,511.5 197.5,511.5 81.5,511.5C 36.5,501.833 9.16667,474.5 -0.5,429.5C -0.5,313.5 -0.5,197.5 -0.5,81.5C 9.16667,36.5 36.5,9.16667 81.5,-0.5 Z"/></g>
<g><path style="opacity:1" fill="#fffefe" d="M 133.5,180.5 C 145.171,180.333 156.838,180.5 168.5,181C 173.4,182.902 176.567,186.402 178,191.5C 186.409,217.832 199.575,241.332 217.5,262C 222.092,265.831 225.925,265.331 229,260.5C 229.667,243.5 229.667,226.5 229,209.5C 227.5,202.165 224.167,195.832 219,190.5C 217.708,186.373 218.875,183.206 222.5,181C 238.833,180.333 255.167,180.333 271.5,181C 274.333,181.833 276.167,183.667 277,186.5C 277.333,207.833 277.667,229.167 278,250.5C 279.117,252.124 280.617,253.124 282.5,253.5C 285.527,252.639 288.194,251.139 290.5,249C 307.303,230.582 320.47,209.749 330,186.5C 331.5,185 333,183.5 334.5,182C 341.257,180.891 348.091,180.391 355,180.5C 361.909,180.391 368.743,180.891 375.5,182C 377.357,183.182 378.357,184.849 378.5,187C 377.536,190.891 376.37,194.725 375,198.5C 364.25,218.344 352.25,237.344 339,255.5C 337,258.833 337,262.167 339,265.5C 352.406,278.902 365.073,292.902 377,307.5C 381.331,312.805 383.331,318.805 383,325.5C 381.363,327.81 379.196,329.31 376.5,330C 364.833,330.667 353.167,330.667 341.5,330C 339.5,329 337.5,328 335.5,327C 325.5,315.667 314.833,305 303.5,295C 297.792,289.786 291.125,286.619 283.5,285.5C 280.776,285.046 278.943,286.046 278,288.5C 277.667,299.833 277.333,311.167 277,322.5C 276.315,325.057 274.815,326.891 272.5,328C 250.783,332.493 230.45,328.826 211.5,317C 193.711,305.544 178.877,291.044 167,273.5C 151.252,251.005 138.918,226.671 130,200.5C 128.032,195.307 127.366,189.974 128,184.5C 129.5,182.531 131.333,181.198 133.5,180.5 Z"/></g>
</svg>
